<svg xmlns="http://www.w3.org/2000/svg" xmlns:xlink="http://www.w3.org/1999/xlink" width="1920" zoomAndPan="magnify" viewBox="0 0 1440 809.999993" height="1080" preserveAspectRatio="xMidYMid meet" version="1.0"><defs><clipPath id="f243e63513"><path d="M 510.441406 205 L 721 205 L 721 341 L 510.441406 341 Z M 510.441406 205 " clip-rule="nonzero"/></clipPath><clipPath id="577bba21ae"><path d="M 611 167.082031 L 929.550781 167.082031 L 929.550781 341 L 611 341 Z M 611 167.082031 " clip-rule="nonzero"/></clipPath><clipPath id="86337bd72a"><path d="M 719 340.800781 L 929.550781 340.800781 L 929.550781 477 L 719 477 Z M 719 340.800781 " clip-rule="nonzero"/></clipPath><clipPath id="6a6c1e5497"><path d="M 510.300781 340.800781 L 829 340.800781 L 829 514.519531 L 510.300781 514.519531 Z M 510.300781 340.800781 " clip-rule="nonzero"/></clipPath></defs><g clip-path="url(#f243e63513)"><path fill="#109e5a" d="M 510.441406 340.972656 L 657.679688 340.421875 L 710.527344 287.96875 L 720.144531 278.429688 L 720.363281 278.210938 L 647.355469 205.058594 L 647.132812 205.28125 L 637.519531 214.820312 L 510.441406 340.972656 " fill-opacity="1" fill-rule="nonzero"/></g><g clip-path="url(#577bba21ae)"><path fill="#10c6b4" d="M 611.367188 169 L 782.457031 340.425781 L 929.695312 340.96875 L 756.253906 167.1875 L 611.367188 169 " fill-opacity="1" fill-rule="nonzero"/></g><path fill="#0d824a" d="M 710.527344 287.96875 L 720.144531 278.429688 L 647.132812 205.28125 L 637.519531 214.820312 L 710.527344 287.96875 " fill-opacity="1" fill-rule="nonzero"/><g clip-path="url(#86337bd72a)"><path fill="#109e5a" d="M 929.554688 340.625 L 782.316406 341.175781 L 729.46875 393.628906 L 719.851562 403.167969 L 719.632812 403.390625 L 792.640625 476.539062 L 792.863281 476.316406 L 802.476562 466.777344 L 929.554688 340.625 " fill-opacity="1" fill-rule="nonzero"/></g><g clip-path="url(#6a6c1e5497)"><path fill="#10c6b4" d="M 828.628906 512.597656 L 657.539062 341.171875 L 510.300781 340.628906 L 683.742188 514.410156 L 828.628906 512.597656 " fill-opacity="1" fill-rule="nonzero"/></g><path fill="#0d824a" d="M 729.46875 393.628906 L 719.851562 403.167969 L 792.863281 476.316406 L 802.476562 466.777344 L 729.46875 393.628906 " fill-opacity="1" fill-rule="nonzero"/></svg>